<svg xmlns="http://www.w3.org/2000/svg" id="Layer_2" data-name="Layer 2" viewBox="0 0 63.8 63.8"><defs><style>.cls-1{fill:#fff}.cls-2{fill:#c9c9c9}.cls-3{fill:#231f20}</style></defs><g id="Layer_1-2" data-name="Layer 1"><path d="M50.3 38.2H8.9v13.6l20.5 7.1 20.9-7.1V38.2z" class="cls-1"/><path d="m9.8 19.5-.1-10 15.7-.1v30H8.7L0 30l9.8-10.5zM52.6 7.8H37.7v32.5h14.9l6-8.1-6-24.4z" class="cls-1"/><path d="M36.7 2.7H26l-3 18.1h18.1L36.7 2.7z" class="cls-1"/><path d="M47.3 40.5v3h2.9V57h3.1v-3.7H57V39.8h3v-3h3.8V23.3H60v-3.1h-3V9.8h-3.8v-3H39.7l.1-3.8h-3.1l.1-3H26.2l.1 2.3h-3.1v4.5H9.8V9h-3v14.3H2.3v3H0v7.5h2.3l-.1 6h4.5v.7l.1 3-.1 9.8h6.8V57h9.7v3H27v3.8h12.7V60h3.8v-3h6.7v-6.7l-6.7-.1v-2.9h-3v3h-6.8V57h-7.5v-6.7l-6.7-.1v-2.9h-3v2.9H9.7v-6.7h3.1l-.1-3h-3l.1-.7v-6H3v-7.5h6.8v-6.8h3v-3h-3V9.8h6.7v3h3v-3h6.7V3h7.5v6.8h6.8v3h3v-3h6.7v6.7h-2.9v3h2.9v6.8H57v7.4h-6.8l.1 6.8h-3z" class="cls-3"/><path d="M26.2 36.8h-6V23.3h3l.1-3h13.4v2.9l3.1.1v13.5h-3l-.1 3H23.3l-.1-3h10.6v-3h3V30h-3v-3.7H30V30h-3.8v6.8z" class="cls-3"/><path d="M33 43.5h-6v-3h-3.7v-.7h13.4v.7H33v3zM36.8 36.8h3v3h-3zM36.7 20.3h3v3h-3zM20.2 20.3h3v3h-3zM20.2 36.8h3v3h-3zM40.5 27h3v6h-3v3.8h-.7V23.2h.7V27zM27 19.5h-3.8v.8h13.5v-.8H33v-3h-6v3zM19.5 33h-3v-6h3v-3.7h.7v13.5h-.7V33zM3 33h6.7v.8H3zM3 26.3h6.7v.7H3zM15.7 9.8h.8v3h-.8zM26.2 3h.8v6.7h-.8zM33 3h.7v6.7H33zM50.2 26.3H57v.7h-6.8zM50.2 33h6.7v.7h-6.7zM47.2 43.5h3v.8h-3zM43.5 47.3h.7v3h-.7zM33 50.3h.8V57H33zM26.2 50.3h.8V57h-.8zM40.5 50.3h-6.8v-.8h3v-2.2h3v-.8h3.8v.8h-3v3zM19.5 50.2l6.7.1v-.8h-2.9v-2.2l-3.1-.1v-.7h-3.7v.8h3v2.9zM9.7 40.5h3l.1 3h.7v-3.7h-.8v-3h-2.2v-3h-.7l-.1 3v3.7zM9.8 19.5h3v-3h.7v3.8h-.8l.1 3h-2.3v3h-.7v-6.8zM19.5 9.8h6.7v.7h-3v2.3h-2.9l-.1.7h-3.7v-.7h3v-3zM40.5 9.8H33.8v.7h2.9v2.2h3l.1.8h3.7v-.7l-3-.1V9.8zM50.2 19.5h-3l.1-3h-.8v3.7l.7.1v2.9h2.3v3.1h.7V19.5z" class="cls-2"/><path d="M50.3 40.5h-3v3h-.8v-3.7h.8v-3h2.2v-3.1h.7l.1 6.8z" class="cls-2"/></g></svg>