<?xml version="1.0" encoding="UTF-8"?>
<svg id="Layer_2" data-name="Layer 2" xmlns="http://www.w3.org/2000/svg" viewBox="0 0 71.28 56.37">
  <defs>
    <style>
      .cls-1 {
        fill: #7f7f7f;
      }

      .cls-2 {
        fill: #fefefe;
      }
    </style>
  </defs>
  <g id="Layer_1-2" data-name="Layer 1">
    <path d="m67.51,46.73v2.97h-10.49v3.71h-3v2.96H17.26v-2.95h-3.75v-6.67H3.76v-3.71H0V2.99h3.01V0h61.5v2.98h3.75v2.97h3.02v40.78h-3.77Zm-17.26,3.44v-3.43h-2.99c-1.25,0-2.49,0-3.74,0v-3.72h20.22V6.69h-2.97v-2.95H3.77v36.33h2.98v2.97h17.25v3.69c-1.25,0-2.49,0-3.74,0h-2.99v3.49"/>
    <path class="cls-2" d="m6.76,40.07h-2.98V3.74h56.99v36.32H6.76Zm.01-2.96h50.98V6.71H6.77v30.4Z"/>
    <path class="cls-1" d="m6.76,40.07h54.01V6.69h2.97v36.33h-20.22v3.72h-3.02v-2.94h-13.49v2.94h-3v-3.69H6.76v-2.97h0Z"/>
    <path class="cls-2" d="m24.01,46.74h3v-2.94h13.49v2.94h3.02c1.25,0,2.49,0,3.74,0,0,1.14-.03,2.29-.04,3.43-1.68-.02-3.37-.04-5.05-.04h-21.06c-.34,0-.6,0-.94.04.05-.16.05-.26.06-.42.03-1,.04-2,.05-3.01,1.25,0,2.49,0,3.74,0h0Z"/>
    <path class="cls-1" d="m47.21,50.18c0-1.14.03-2.29.04-3.43h2.99v3.43h-3.03Z"/>
    <path class="cls-1" d="m20.26,50.24c-.89.03-2.01,0-2.99,0v-3.49h2.99"/>
    <path d="m6.77,37.11V6.71h50.98v30.4H6.77Zm5.98-20.69v-3.8h7.49v-2.21h-9.73v9.65h2.23v-3.64h.01Z"/>
    <path class="cls-2" d="m16.5,12.62h-3.75v3.8c-.74-.02-1.49-.03-2.23-.05v-5.97h5.99v2.21h-.01Z"/>
    <path class="cls-1" d="m16.5,12.62v-2.21h3.74v2.21s-3.74,0-3.74,0Z"/>
    <path class="cls-1" d="m10.52,16.38c.74.02,1.49.03,2.23.05v3.64h-2.23v-3.68h0Z"/>
  </g>
</svg>